<?xml version="1.0" encoding="utf-8"?>
<!-- Generator: Adobe Illustrator 26.0.3, SVG Export Plug-In . SVG Version: 6.00 Build 0)  -->
<svg version="1.1" id="Layer_1" xmlns="http://www.w3.org/2000/svg" xmlns:xlink="http://www.w3.org/1999/xlink" x="0px" y="0px"
	 viewBox="0 0 1200 1200" style="enable-background:new 0 0 1200 1200;" xml:space="preserve">
<style type="text/css">
	.st0{fill:#F5336C;}
	.st1{fill:#EC088D;}
	.st2{fill:#02ABED;}
	.st3{fill:url(#SVGID_1_);}
	.st4{fill:#E6E6E6;}
	.st5{fill:url(#SVGID_00000050623033384107344720000014168439165402824065_);}
	.st6{fill:url(#SVGID_00000160872413562725950500000016338113039787477903_);}
	.st7{fill:url(#SVGID_00000076583649141576624570000003941142836842082949_);}
	.st8{fill:url(#SVGID_00000106141664052993474930000017781282526231059869_);}
	.st9{fill:#FFC105;}
	.st10{fill:#FFFFFF;}
</style>
<g id="Dot_Pattern_Vector_Pack_12">
	<path class="st0" d="M889.46,991.83H310.54c-56.54,0-102.38-45.84-102.38-102.38V310.54c0-56.54,45.84-102.38,102.38-102.38h578.91
		c27.39,0,52.27,10.76,70.64,28.28c19.55,18.65,31.73,44.95,31.73,74.1v578.91C991.83,946,946,991.83,889.46,991.83z"/>
	<g>
		<path class="st1" d="M-729.87,882.38c-0.92,0-1.85-0.02-2.78-0.06l-72.65-3.18c-16.74-0.73-32.2-7.94-43.52-20.3
			c-2.76-3.02-5.21-6.27-7.31-9.72c-11.09,3.64-23.05,6.03-35.76,7.15c-6.14,0.54-12.21,0.82-18.02,0.82
			c-21.79,0-41.47-3.87-58.48-11.49c-24.73-11.09-42.39-28.62-52.48-52.12c-7.76-18.06-12.95-43.06-15.89-76.45l-10.75-122.22
			c-2.04-23.19-2.73-40.62-2.12-53.28c0.85-17.49,6.28-34.58,16.13-50.8c10.03-16.52,24.5-30.06,43.01-40.24
			c17.16-9.44,37.09-15.22,59.22-17.16c5.89-0.52,11.71-0.78,17.29-0.78c22.62,0,43.03,4.3,60.65,12.78
			c20.52,9.87,36.01,23.46,46.18,40.48c5.29-1.42,10.79-2.15,16.41-2.15c0.92,0,1.85,0.02,2.78,0.06l28.46,1.25
			c4.71,0.21,9.32,0.93,13.76,2.13c8.53-16.03,24.81-27.4,43.85-28.98l80.31-6.64c1.5-0.12,3.02-0.19,4.52-0.19
			c15.41,0,29.51,6.32,39.54,16.81c8.41-8.77,20.2-14.25,33.13-14.25c0.35,0,0.71,0,1.06,0.01l67.91,1.58
			c23.46,0.54,41.83,2.95,56.12,7.36c8.27-7.22,19.04-11.51,30.47-11.51c1.05,0,2.12,0.04,3.16,0.11l72.89,4.96
			c25.36,1.73,44.97,5.24,59.96,10.74c18.27,6.71,32.6,16.49,42.6,29.08c9.72,12.23,15.93,26.59,18.45,42.67
			c1.95,12.39,2.15,28.57,0.63,50.91l-1.78,26.15c-1.74,25.56-6.03,43.97-13.5,57.93c-9.26,17.29-24.83,30.34-45.04,37.72
			c-11.38,4.16-24.47,6.5-38.99,6.99l-7.68,112.97c-1.65,24.24-21.97,43.23-46.27,43.23c-1.03,0-2.08-0.04-3.12-0.1l-66.63-4.53
			c-20.15-1.38-36.45-15.49-41.56-33.93c-8.44,9.1-20.47,14.83-33.68,14.83c-0.37,0-0.75,0-1.12-0.01l-61.97-1.44
			c-6.93-0.16-13.71-1.9-19.81-5l-24.12,2c-1.5,0.12-3.02,0.19-4.52,0.19c-9.42,0-18.39-2.35-26.25-6.62
			c-8.2,6.41-18.31,10.49-29.35,11.4l-20.24,1.67C-688.02,871.13-707.77,882.38-729.87,882.38z"/>
		<path class="st2" d="M-729.87,882.38c-0.92,0-1.85-0.02-2.78-0.06l-72.65-3.18c-16.74-0.73-32.2-7.94-43.52-20.3
			c-2.76-3.02-5.21-6.27-7.31-9.72c-11.09,3.64-23.05,6.03-35.76,7.15c-6.14,0.54-12.21,0.82-18.02,0.82
			c-21.79,0-41.47-3.87-58.48-11.49c-24.73-11.09-42.39-28.62-52.48-52.12c-7.76-18.06-12.95-43.06-15.89-76.45l-10.75-122.22
			c-2.04-23.19-2.73-40.62-2.12-53.28c0.85-17.49,6.28-34.58,16.13-50.8c10.03-16.52,24.5-30.06,43.01-40.24
			c17.16-9.44,37.09-15.22,59.22-17.16c5.89-0.52,11.71-0.78,17.29-0.78c22.62,0,43.03,4.3,60.65,12.78
			c20.52,9.87,36.01,23.46,46.18,40.48c5.29-1.42,10.79-2.15,16.41-2.15c0.92,0,1.85,0.02,2.78,0.06l28.46,1.25
			c4.71,0.21,9.32,0.93,13.76,2.13c8.53-16.03,24.81-27.4,43.85-28.98l80.31-6.64c1.5-0.12,3.02-0.19,4.52-0.19
			c15.41,0,29.51,6.32,39.54,16.81c8.41-8.77,20.2-14.25,33.13-14.25c0.35,0,0.71,0,1.06,0.01l67.91,1.58
			c23.46,0.54,41.83,2.95,56.12,7.36c8.27-7.22,19.04-11.51,30.47-11.51c1.05,0,2.12,0.04,3.16,0.11l72.89,4.96
			c25.36,1.73,44.97,5.24,59.96,10.74c18.27,6.71,32.6,16.49,42.6,29.08c9.72,12.23,15.93,26.59,18.45,42.67
			c1.95,12.39,2.15,28.57,0.63,50.91l-1.78,26.15c-1.74,25.56-6.03,43.97-13.5,57.93c-9.26,17.29-24.83,30.34-45.04,37.72
			c-11.38,4.16-24.47,6.5-38.99,6.99l-7.68,112.97c-1.65,24.24-21.97,43.23-46.27,43.23c-1.03,0-2.08-0.04-3.12-0.1l-66.63-4.53
			c-20.15-1.38-36.45-15.49-41.56-33.93c-8.44,9.1-20.47,14.83-33.68,14.83c-0.37,0-0.75,0-1.12-0.01l-61.97-1.44
			c-6.93-0.16-13.71-1.9-19.81-5l-24.12,2c-1.5,0.12-3.02,0.19-4.52,0.19c-9.42,0-18.39-2.35-26.25-6.62
			c-8.2,6.41-18.31,10.49-29.35,11.4l-20.24,1.67C-688.02,871.13-707.77,882.38-729.87,882.38z"/>
		<path class="st0" d="M-212.29,536.89c-1.9-12.07-6.5-22.78-13.69-31.83c-7.31-9.2-18.22-16.52-32.43-21.73
			c-12.89-4.73-30.4-7.8-53.53-9.37l-72.89-4.96c-0.53-0.04-1.06-0.05-1.58-0.05c-10.42,0-19.38,7-22.22,16.65
			c-4.36-2.31-9.19-4.3-14.47-5.98c-12.28-3.89-28.78-6.03-50.44-6.53l-67.89-1.58c-0.18,0-0.35-0.01-0.53-0.01
			c-12.26,0-22.47,9.97-22.75,22.23l-1.86,80.08l-17.37-80.52c-3.36-14.33-15.98-24.34-30.69-24.34c-0.87,0-1.74,0.04-2.61,0.11
			l-80.31,6.64c-15.7,1.3-28.12,14.14-28.9,29.87l-0.7,14.26c-1.06-1.55-2.24-3.03-3.53-4.44c-7.13-7.79-16.87-12.33-27.42-12.79
			l-28.48-1.25c-0.58-0.03-1.17-0.04-1.75-0.04c-10.8,0-20.59,4.3-27.73,11.33c-1.5-5.05-3.16-9.56-4.97-13.54
			c-7.44-16.31-20.89-29.23-39.96-38.41c-14.46-6.96-31.48-10.48-50.59-10.48c-4.91,0-10.04,0.23-15.26,0.69
			c-18.9,1.66-35.74,6.5-50.06,14.38c-14.9,8.19-26.46,18.94-34.36,31.95c-7.82,12.87-12.12,26.29-12.78,39.87
			c-0.56,11.6,0.11,28,2.06,50.12l10.75,122.22c2.72,30.89,7.33,53.56,14.09,69.32c7.72,17.98,21.4,31.47,40.64,40.09
			c14.01,6.28,30.49,9.46,48.99,9.46c5.13,0,10.51-0.24,15.99-0.73c19.87-1.75,37.26-7,51.85-15.66
			c0.23,9.54,3.86,18.57,10.37,25.68c7.13,7.79,16.87,12.33,27.42,12.79l72.67,3.18c0.58,0.03,1.17,0.04,1.74,0.04
			c17.81,0,32.89-11.71,37.81-28.01l33.6-2.78c14.16-1.17,25.36-11.33,28.23-24.67c4.68,11.8,16.09,19.81,29.28,19.81
			c0.87,0,1.74-0.04,2.61-0.11l31.98-2.64c4,3.49,9.04,5.45,14.41,5.58l62.03,1.44c0.18,0,0.35,0.01,0.53,0.01
			c12.26,0,22.47-9.97,22.75-22.23l2.89-124.68l2.11,0.05c1.43,0.03,2.85,0.05,4.24,0.05c12.7,0,23.64-1.35,33.17-4.1l-9.89,145.38
			c-0.86,12.74,8.8,23.81,21.54,24.68l66.6,4.53c0.53,0.04,1.05,0.05,1.58,0.05c12.13,0,22.28-9.49,23.11-21.6l9.19-135.19
			l3.59,0.24c4.23,0.29,8.36,0.43,12.27,0.43c14.12,0,26.51-1.91,36.81-5.68c14.98-5.47,25.93-14.51,32.54-26.87
			c5.78-10.81,9.32-26.69,10.81-48.55l1.78-26.15C-210.51,562.34-210.64,547.38-212.29,536.89z"/>
		<linearGradient id="SVGID_1_" gradientUnits="userSpaceOnUse" x1="-470.3419" y1="549.7145" x2="-485.0886" y2="777.3254">
			<stop  offset="0" style="stop-color:#FFFFFF"/>
			<stop  offset="0.4713" style="stop-color:#FFFEFB"/>
			<stop  offset="0.946" style="stop-color:#FFFAEF"/>
			<stop  offset="1" style="stop-color:#FFF9ED"/>
		</linearGradient>
		<path class="st3" d="M-394.29,531.83c-1.71-8.39-5.17-15.59-10.38-21.59c-5.22-6-13.13-10.68-23.7-14.03
			c-10.59-3.35-25.78-5.26-45.58-5.72l-67.89-1.57c-2.95-0.07-5.4,2.26-5.47,5.21l-0.65,27.9l-4.62,199.28l-1.75,75.63l-0.02,0.96
			c-0.07,2.96,2.26,5.41,5.22,5.48l62.02,1.44c2.96,0.06,5.41-2.28,5.48-5.22l3.17-136.75c0.07-2.95,2.52-5.29,5.47-5.22l14.17,0.32
			c15.89,0.37,28.81-1.51,38.76-5.66c9.95-4.14,16.87-10.26,20.74-18.35c3.87-8.09,6.01-21.07,6.43-38.92l0.56-24.35
			C-391.94,553.17-392.59,540.23-394.29,531.83z M-452.97,561.84l-0.53,22.97c-0.24,10.37-1.69,17.16-4.36,20.38
			c-2.66,3.22-7.34,4.75-14.01,4.6l-5.36-0.13l1.66-71.34c9.44,0.22,15.62,1.81,18.55,4.76
			C-454.09,546.03-452.75,552.27-452.97,561.84z"/>
		<g>
			<path class="st4" d="M-554.34,796.95c7.27-1.9,12.75-8.72,10.49-16.12c-5.46-19.38-9.44-39.22-8.73-59.51
				c6.57,13,10.41,26.74,13.54,40.79c1.1,5.23,2.09,10.49,2.83,15.79c0.36,2.12,0.47,4.41,0.11,6.54
				C-537.48,793-546.02,799.25-554.34,796.95L-554.34,796.95z"/>
		</g>
		<g>
			<path class="st4" d="M-402.21,639.5c-1.97-18.41-1.47-36.75-0.32-55.12c1.34-18.37,3.32-36.6,7.78-54.57
				c1.99,18.41,1.48,36.75,0.32,55.12C-395.78,603.29-397.76,621.53-402.21,639.5L-402.21,639.5z"/>
		</g>
		
			<linearGradient id="SVGID_00000024718240818785305260000008571896108569215927_" gradientUnits="userSpaceOnUse" x1="-309.2597" y1="526.1835" x2="-335.5472" y2="796.1108">
			<stop  offset="0" style="stop-color:#FFFFFF"/>
			<stop  offset="0.4713" style="stop-color:#FFFEFB"/>
			<stop  offset="0.946" style="stop-color:#FFFAEF"/>
			<stop  offset="1" style="stop-color:#FFF9ED"/>
		</linearGradient>
		<path style="fill:url(#SVGID_00000024718240818785305260000008571896108569215927_);" d="M-392.16,491.72
			c0.22-3.17,2.96-5.57,6.13-5.35l72.9,4.96c21.27,1.45,37.5,4.23,48.71,8.34c11.21,4.12,19.48,9.52,24.8,16.22
			c5.32,6.7,8.7,14.6,10.13,23.7c1.43,9.11,1.51,23.05,0.23,41.84l-1.78,26.15c-1.3,19.17-4.23,33-8.78,41.51
			c-4.56,8.51-12.28,14.76-23.17,18.73c-10.89,3.98-24.87,5.39-41.93,4.23l-15.22-1.03c-3.17-0.22-5.92,2.18-6.13,5.35l-9.99,146.82
			c-0.22,3.17-2.96,5.57-6.13,5.35l-66.6-4.53c-3.17-0.22-5.57-2.96-5.35-6.13l20.31-298.69L-392.16,491.72z M-317.18,542.67
			l-5.21,76.59l5.75,0.39c7.17,0.49,12.27-0.94,15.29-4.27c3.02-3.33,4.91-10.57,5.67-21.69l1.68-24.67
			c0.7-10.26-0.46-17.05-3.46-20.36C-300.47,545.36-307.04,543.35-317.18,542.67z"/>
		
			<linearGradient id="SVGID_00000029760332281416965360000007767101406052726681_" gradientUnits="userSpaceOnUse" x1="-645.6868" y1="519.8232" x2="-629.8083" y2="769.3423">
			<stop  offset="0" style="stop-color:#FFFFFF"/>
			<stop  offset="0.4713" style="stop-color:#FFFEFB"/>
			<stop  offset="0.946" style="stop-color:#FFFAEF"/>
			<stop  offset="1" style="stop-color:#FFF9ED"/>
		</linearGradient>
		<path style="fill:url(#SVGID_00000029760332281416965360000007767101406052726681_);" d="M-540.04,779.52l-12.55-58.2l-5.25-24.31
			l-43.06-199.74c-1.6-6.81-7.94-11.43-14.92-10.86l-80.31,6.64c-7.06,0.59-12.59,6.31-12.94,13.38l-1.75,35.34l-7.32,234.09
			l-0.19,6.14c8.25,3.48,13.88,11.83,13.46,21.32l-0.26,5.99c0.55,0.02,1.1,0.01,1.67-0.03l4.14-0.35l41.83-3.45
			c7.3-0.6,12.93-6.69,12.95-14.02l0.1-24.56c0.01-3.67,1.43-7.02,3.76-9.54c2.32-2.51,5.56-4.18,9.2-4.48
			c7.35-0.6,13.93,4.55,15.11,11.83l3.87,23.98c1.17,7.28,7.75,12.43,15.1,11.83l37.21-3.08l5.82-0.49l1.72-0.14
			C-544.03,796.1-538.06,787.92-540.04,779.52z M-631.25,691.46l-13.37,1.1c-3.08,0.26-5.71-2.17-5.7-5.26
			c0.05-16.13-1.27-60.61-0.1-87.16c0.28-6.3,9.38-6.89,10.47-0.67c2.88,16.6,6.63,43.7,9.87,64.57c1.31,8.44,2.53,15.84,3.58,21.15
			C-625.9,688.28-628.11,691.19-631.25,691.46z"/>
		<g>
			<path class="st4" d="M-705.12,809.31c-2.49-4.58-3.08-9.91-5.41-14.44c-2.17-4.72-4.53-8.22-7.8-12.87
				c6.51-0.9,12.57,3.74,15.19,9.5C-700.37,797.37-701.45,804.09-705.12,809.31L-705.12,809.31z"/>
		</g>
		
			<linearGradient id="SVGID_00000085942127779469930630000015017063439506142592_" gradientUnits="userSpaceOnUse" x1="-758.9645" y1="568.158" x2="-763.5012" y2="804.067">
			<stop  offset="0" style="stop-color:#FFFFFF"/>
			<stop  offset="0.4713" style="stop-color:#FFFEFB"/>
			<stop  offset="0.946" style="stop-color:#FFFAEF"/>
			<stop  offset="1" style="stop-color:#FFF9ED"/>
		</linearGradient>
		<path style="fill:url(#SVGID_00000085942127779469930630000015017063439506142592_);" d="M-718.33,782
			c-2.36-1.02-4.94-1.63-7.66-1.74l-22.09-0.96l10.34-236.24c0.53-12.2-8.93-22.53-21.13-23.06l-28.48-1.24
			c-12.2-0.53-22.53,8.93-23.06,21.13l-4.1,93.66l-1.87,42.66l-4.57,104.36l-1.29,29.38c-0.53,12.2,8.93,22.53,21.13,23.06
			l72.67,3.18c12.2,0.53,22.53-8.93,23.06-21.13l0.26-5.75l0.26-5.99C-704.45,793.83-710.07,785.48-718.33,782z"/>
		<g>
			<path class="st4" d="M-813.77,690.08c4.42,13.71,6.04,27.92,5.81,42.27c-0.27,14.12-3.22,30.39-14.3,40.19
				c5.39-13.38,5.88-26.35,6.17-40.4C-815.65,718.12-815.75,704.16-813.77,690.08L-813.77,690.08z"/>
		</g>
		
			<linearGradient id="SVGID_00000062172994313973609180000002611739459891924136_" gradientUnits="userSpaceOnUse" x1="-928.9841" y1="461.6226" x2="-893.8245" y2="774.6556">
			<stop  offset="0" style="stop-color:#FFFFFF"/>
			<stop  offset="0.4713" style="stop-color:#FFFEFB"/>
			<stop  offset="0.946" style="stop-color:#FFFAEF"/>
			<stop  offset="1" style="stop-color:#FFF9ED"/>
		</linearGradient>
		<path style="fill:url(#SVGID_00000062172994313973609180000002611739459891924136_);" d="M-833.64,595.12l-28.4,2.5l-25.02,2.2
			c-6.31,0.56-11.88-4.11-12.44-10.43l-3.48-39.55c-1.3-14.82-2.93-24-4.89-27.54c-1.95-3.53-5.71-5.06-11.27-4.57
			c-6.28,0.55-10.07,3.14-11.37,7.76c-1.3,4.62-1.29,14.36,0.01,29.21l15.2,172.78c1.25,14.25,2.92,23.48,4.99,27.68
			c2.07,4.2,6.07,6.04,11.99,5.52c5.68-0.5,9.2-3,10.57-7.52c1.37-4.51,1.34-14.82-0.07-30.93l-2.24-25.44
			c-0.56-6.31,4.11-11.88,10.43-12.44l53.42-4.7c6.31-0.56,11.88,4.11,12.44,10.43v0c2.67,30.36,2.42,52.09-0.75,65.16
			c-3.17,13.08-11.67,25.04-25.51,35.89c-13.84,10.85-31.51,17.22-53.01,19.11c-22.35,1.97-41.12-0.46-56.33-7.28
			c-15.21-6.82-25.8-17.18-31.77-31.08c-5.97-13.9-10.22-35.22-12.75-63.97l-10.75-122.22c-1.86-21.14-2.53-37.06-2.01-47.75
			c0.52-10.7,3.94-21.25,10.27-31.67c6.32-10.42,15.61-18.99,27.87-25.73c12.25-6.74,26.65-10.83,43.2-12.29
			c22.47-1.98,41.39,0.74,56.77,8.14c15.38,7.4,25.93,17.38,31.67,29.95c5.73,12.56,9.8,32.54,12.21,59.92l1.45,16.43
			C-822.66,589-827.33,594.57-833.64,595.12z"/>
		<g>
			<g>
				<path class="st0" d="M-445.41,405.8c-2.85-6.67-9.82-10.53-16.96-9.38c-0.31,0.05-0.61,0.12-0.91,0.19
					c0.15-2.76-0.41-5.6-1.8-8.22c-3.17-5.92-9.74-9.17-16.35-8.11c-1.7,0.27-3.34,0.83-4.88,1.64l-27.44,14.62
					c-2.52-0.94-5.25-1.24-7.97-0.8c-2.65,0.43-5.09,1.5-7.15,3.11c-1.05-2.55-2.79-4.86-5.17-6.62c-3.43-2.53-7.63-3.54-11.83-2.87
					c-2.91,0.47-5.57,1.73-7.75,3.62c-0.71-3.84-2.78-7.3-5.91-9.62c-3.44-2.55-7.65-3.58-11.86-2.9c-4.52,0.73-8.49,3.38-10.9,7.31
					l-29.03,47.72c-2.23-3.64-5.83-6.36-10.16-7.2c-1.85-0.36-3.71-0.4-5.55-0.1c-6.97,1.12-12.36,6.81-13.11,13.86l-7.08,69.04
					c-1.47,17.14,6.78,36.3,21.54,50c13.18,12.24,29.54,17.84,44.89,15.37c0,0,0,0,0,0c14.74-2.37,27.91-11.57,39.08-27.24
					l39.88-42.43l37.16-19.79c3.7-1.97,6.41-5.27,7.64-9.28c1.22-4.01,0.81-8.26-1.16-11.97c-1.46-2.73-3.64-4.88-6.22-6.31
					l9.45-5.03c3.7-1.97,6.41-5.27,7.64-9.28c1.22-4.01,0.81-8.26-1.17-11.97c-1.43-2.68-3.57-4.8-6.08-6.24l1.68-0.9
					C-445.55,422.08-442.25,413.2-445.41,405.8z"/>
				<path class="st0" d="M-555.25,374.89c2.87,3.1,7.07,4.54,11.24,3.87c0.14-0.02,0.28-0.05,0.42-0.08
					c2.29-0.45,4.4-1.53,6.12-3.12c2.46-2.28,3.89-5.39,4.02-8.75c0.04-0.95-0.04-1.88-0.21-2.8c1.21,0.45,2.51,0.72,3.87,0.77
					c0.83,0.03,1.67-0.02,2.49-0.15c0.14-0.02,0.28-0.05,0.42-0.08c0.25-0.05,0.49-0.11,0.73-0.17c-0.22,0.87-0.37,1.77-0.4,2.69
					c-0.13,3.36,1.06,6.57,3.34,9.03c2.87,3.1,7.07,4.54,11.24,3.87c0.14-0.02,0.28-0.05,0.42-0.08c2.29-0.45,4.41-1.53,6.12-3.12
					l16.17-14.98c2.47-2.28,3.89-5.39,4.02-8.75c0.13-3.36-1.06-6.57-3.34-9.03c-2.87-3.1-7.07-4.54-11.24-3.87
					c-2.45,0.4-4.72,1.5-6.54,3.19l-10.39,9.63c0.01-0.09,0.02-0.18,0.02-0.28l0.84-22.02c0.13-3.36-1.06-6.57-3.34-9.03
					c-2.28-2.47-5.39-3.89-8.74-4.02c-0.84-0.03-1.68,0.02-2.5,0.15c-5.89,0.95-10.33,5.97-10.56,11.94l-0.84,22.02
					c-0.01,0.19,0.01,0.37,0.01,0.56l-9.89-10.68c-2.87-3.1-7.07-4.54-11.24-3.87c-2.45,0.4-4.72,1.5-6.54,3.19
					c-2.46,2.28-3.89,5.39-4.02,8.75c-0.13,3.36,1.06,6.57,3.34,9.03L-555.25,374.89z"/>
			</g>
			<g>
				<path class="st9" d="M-512.67,374.21c-2.23,0.44-4.63-0.26-6.28-2.04c-2.54-2.75-2.38-7.03,0.37-9.58l16.17-14.98
					c2.74-2.54,7.03-2.38,9.58,0.37c2.54,2.75,2.38,7.03-0.37,9.58l-16.17,14.98C-510.33,373.42-511.48,373.98-512.67,374.21z"/>
				<path class="st9" d="M-528,358.88c-0.51,0.1-1.03,0.14-1.57,0.12c-3.74-0.14-6.66-3.29-6.51-7.03l0.84-22.02
					c0.14-3.74,3.29-6.66,7.03-6.51c3.74,0.14,6.66,3.29,6.51,7.03l-0.84,22.02C-522.66,355.69-524.98,358.29-528,358.88z"/>
				<path class="st9" d="M-544.71,372.99c-2.23,0.44-4.63-0.26-6.28-2.04l-14.98-16.17c-2.54-2.75-2.38-7.03,0.37-9.58
					c2.74-2.54,7.03-2.38,9.58,0.37l14.98,16.17c2.54,2.75,2.38,7.03-0.37,9.58C-542.37,372.2-543.52,372.75-544.71,372.99z"/>
				<g>
					<g>
						<path class="st9" d="M-607.42,446.03l-1.81,18.63l5.56-7.38l44.42-60.02c0.43-3.48-0.83-7.06-3.76-9.23
							c-4.73-3.51-11.33-2.15-14.35,2.76l-30.32,49.85C-607.33,442.37-607.23,444.18-607.42,446.03z"/>
						<path class="st9" d="M-450.75,408.07c-2.31-5.41-8.69-7.6-13.77-4.89l-36.8,19.6c0.83,0.42,1.64,0.9,2.4,1.46
							c5.19,3.84,7.6,10.05,6.86,16.03l36.41-19.39C-451.05,418.43-448.71,412.87-450.75,408.07z"/>
						<path class="st9" d="M-504.91,420.82l30.63-16.31c4.82-2.57,6.65-8.56,4.08-13.39c-2.58-4.81-8.56-6.65-13.39-4.08l-23.1,12.3
							C-501.32,405.04-500.57,413.98-504.91,420.82z"/>
						<path class="st9" d="M-467.03,431.8l-26.85,14.3c-0.41,0.8-0.87,1.57-1.42,2.32l-4.8,6.48c2.3,0.53,4.5,1.52,6.43,2.94
							c2.68,1.99,4.61,4.61,5.76,7.51l30.19-16.08c4.82-2.57,6.65-8.56,4.08-13.39C-456.22,431.06-462.2,429.23-467.03,431.8z"/>
						<path class="st9" d="M-476.73,464.39l-10.08,5.37c0.49,4.21-0.54,8.6-3.25,12.26l-14.53,19.64l20.18-10.75l16.99-9.05
							c4.82-2.57,6.65-8.56,4.08-13.39C-465.92,463.65-471.9,461.82-476.73,464.39z"/>
					</g>
					<path class="st9" d="M-498.05,463.78c-4.4-3.24-10.59-2.32-13.84,2.07l-20.31,27.45c-0.73,0.99-2.12,1.19-3.1,0.45v0
						c-0.97-0.73-1.17-2.1-0.45-3.08l34.52-46.64c3.25-4.39,2.33-10.59-2.07-13.84c-4.4-3.24-10.59-2.32-13.84,2.07l-34.44,46.53
						c-0.71,0.96-2.06,1.15-3.01,0.44l0,0c-0.94-0.71-1.13-2.04-0.43-2.99l43.46-58.73c3.1-4.19,2.83-10.22-1.08-13.67
						c-4.41-3.9-11.11-3.12-14.54,1.51l-43.89,59.31c-0.57,0.76-1.64,0.92-2.4,0.35l0,0c-0.75-0.56-0.9-1.63-0.35-2.38l38.4-51.88
						c3.25-4.39,2.33-10.59-2.07-13.84c-4.39-3.24-10.59-2.32-13.84,2.07l-46.44,62.75l-12.09,16.05c-2.64,3.51-8.23,1.3-7.76-3.06
						l2.85-29.45c0.55-5.19-2.73-10.27-7.85-11.27c-5.78-1.13-11.16,2.93-11.77,8.66l-7.07,68.95
						c-3.42,39.86,54.26,91.43,95.05,34.17l38.97-52.66l11.45-15.47C-492.74,473.23-493.66,467.03-498.05,463.78z"/>
				</g>
			</g>
		</g>
		<path class="st4" d="M-583.2,579.33c-8.78-26.14-15.09-52.98-20.75-79.92c-0.67-5.56-5.23-9.96-10.91-10.04
			c-1.43-0.01-5.21,0.22-6.69,0.26c-12.23,0.47-24.47,0.73-36.78,0.29c12.06-2.45,24.19-4.21,36.33-5.75
			c0.88-0.12,4.91-0.6,5.69-0.7c9.18-1.16,17.54,5.36,19.07,14.43C-591.29,524.79-585.97,551.88-583.2,579.33L-583.2,579.33z"/>
		<path class="st10" d="M-600.89,497.27c-1.6-6.81-7.94-11.43-14.92-10.86l-42.52,3.52v129.83h7.46c0.06-7.07,0.19-13.77,0.45-19.6
			c0.28-6.3,9.38-6.89,10.47-0.67c0.99,5.73,2.09,12.73,3.24,20.27h62.23L-600.89,497.27z"/>
	</g>
	<g>
		<g>
			<path class="st0" d="M800.33,517.14c-5.68-13.31-19.6-21-33.84-18.71c-0.61,0.1-1.22,0.24-1.82,0.37
				c0.3-5.51-0.81-11.17-3.6-16.4c-6.32-11.8-19.43-18.31-32.63-16.18c-3.4,0.55-6.67,1.65-9.73,3.28l-54.75,29.16
				c-5.02-1.87-10.47-2.48-15.9-1.6c-5.28,0.85-10.16,2.99-14.27,6.2c-2.1-5.09-5.57-9.7-10.31-13.21
				c-6.84-5.04-15.22-7.07-23.61-5.72c-5.81,0.94-11.12,3.46-15.47,7.23c-1.41-7.66-5.55-14.57-11.79-19.2
				c-6.87-5.09-15.27-7.14-23.67-5.79c-9.02,1.45-16.94,6.75-21.75,14.58l-57.92,95.22c-4.45-7.27-11.63-12.68-20.28-14.38
				c-3.68-0.72-7.41-0.79-11.08-0.2c-13.9,2.24-24.66,13.59-26.16,27.65l-14.13,137.76c-2.94,34.2,13.53,72.42,42.97,99.77
				c26.3,24.42,58.94,35.59,89.56,30.66c0,0,0,0,0,0c29.41-4.74,55.68-23.08,77.97-54.36l79.58-84.66l74.15-39.49
				c7.39-3.93,12.8-10.51,15.24-18.51c2.44-8,1.62-16.48-2.32-23.88c-2.91-5.44-7.27-9.74-12.41-12.6l18.85-10.04
				c7.39-3.93,12.8-10.51,15.24-18.51c2.44-8,1.62-16.48-2.33-23.88c-2.86-5.34-7.12-9.59-12.14-12.45l3.36-1.79
				C800.05,549.63,806.63,531.92,800.33,517.14z"/>
			<path class="st0" d="M581.18,455.47c5.72,6.18,14.1,9.07,22.42,7.73c0.28-0.05,0.56-0.09,0.84-0.15
				c4.56-0.9,8.79-3.04,12.22-6.22c4.92-4.56,7.77-10.76,8.02-17.46c0.07-1.89-0.09-3.76-0.42-5.58c2.42,0.89,5.01,1.44,7.73,1.55
				c1.66,0.06,3.33-0.04,4.97-0.3c0.28-0.05,0.56-0.09,0.84-0.15c0.49-0.1,0.97-0.23,1.45-0.35c-0.45,1.74-0.73,3.52-0.8,5.36
				c-0.26,6.7,2.11,13.1,6.67,18.01c5.72,6.18,14.1,9.07,22.42,7.73c0.28-0.05,0.56-0.09,0.84-0.15c4.57-0.9,8.79-3.05,12.21-6.22
				l32.26-29.89c4.92-4.56,7.77-10.76,8.02-17.46c0.26-6.7-2.11-13.1-6.67-18.02c-5.72-6.18-14.1-9.06-22.42-7.72
				c-4.89,0.79-9.41,2.99-13.05,6.37l-20.74,19.21c0.01-0.19,0.04-0.37,0.04-0.56l1.68-43.94c0.26-6.7-2.11-13.1-6.67-18.02
				c-4.56-4.92-10.76-7.77-17.44-8.02c-1.67-0.07-3.35,0.04-4.99,0.3c-11.75,1.89-20.61,11.91-21.07,23.82l-1.68,43.95
				c-0.01,0.37,0.01,0.74,0.01,1.11l-19.74-21.31c-5.72-6.18-14.1-9.07-22.42-7.73c-4.89,0.79-9.41,2.99-13.06,6.37
				c-4.92,4.56-7.77,10.76-8.02,17.46c-0.26,6.7,2.11,13.1,6.67,18.02L581.18,455.47z"/>
		</g>
		<g>
			<path class="st9" d="M666.13,454.13c-4.45,0.87-9.23-0.51-12.53-4.08c-5.08-5.48-4.75-14.03,0.73-19.11l32.26-29.88
				c5.48-5.07,14.03-4.75,19.11,0.73c5.08,5.48,4.75,14.03-0.73,19.11l-32.26,29.88C670.8,452.55,668.51,453.66,666.13,454.13z"/>
			<path class="st9" d="M635.55,423.53c-1.01,0.2-2.06,0.28-3.13,0.24c-7.46-0.29-13.28-6.57-13-14.03l1.68-43.94
				c0.29-7.46,6.56-13.29,14.03-12.99c7.46,0.29,13.28,6.57,13,14.03l-1.68,43.94C646.2,417.17,641.56,422.35,635.55,423.53z"/>
			<path class="st9" d="M602.21,451.69c-4.45,0.87-9.23-0.51-12.53-4.08l-29.88-32.26c-5.08-5.48-4.75-14.03,0.73-19.11
				c5.48-5.07,14.03-4.75,19.11,0.73l29.88,32.26c5.08,5.48,4.75,14.03-0.73,19.11C606.87,450.11,604.59,451.22,602.21,451.69z"/>
			<g>
				<g>
					<path class="st9" d="M477.07,597.42l-3.6,37.16l11.1-14.73l88.63-119.76c0.86-6.94-1.65-14.08-7.49-18.41
						c-9.44-6.99-22.61-4.29-28.63,5.5l-60.5,99.46C477.26,590.11,477.47,593.74,477.07,597.42z"/>
					<path class="st9" d="M789.68,521.69c-4.61-10.8-17.34-15.16-27.48-9.75l-73.42,39.11c1.66,0.85,3.27,1.79,4.79,2.91
						c10.35,7.67,15.16,20.05,13.69,31.99l72.65-38.69C789.08,542.36,793.76,531.25,789.68,521.69z"/>
					<path class="st9" d="M681.61,547.13l61.11-32.55c9.63-5.13,13.27-17.08,8.15-26.71c-5.14-9.6-17.09-13.27-26.71-8.14
						l-46.09,24.55C688.79,515.63,690.27,533.48,681.61,547.13z"/>
					<path class="st9" d="M757.2,569.02l-53.58,28.54c-0.83,1.59-1.74,3.14-2.84,4.62l-9.57,12.93c4.59,1.05,8.97,3.03,12.82,5.87
						c5.35,3.96,9.19,9.2,11.48,14.98l60.25-32.09c9.63-5.13,13.27-17.08,8.15-26.71C778.77,567.56,766.83,563.9,757.2,569.02z"/>
					<path class="st9" d="M737.85,634.05l-20.11,10.71c0.97,8.39-1.07,17.15-6.48,24.46l-28.99,39.18l40.26-21.44l33.89-18.05
						c9.63-5.13,13.27-17.08,8.15-26.71C759.41,632.58,747.47,628.93,737.85,634.05z"/>
				</g>
				<path class="st9" d="M695.29,632.84c-8.78-6.47-21.13-4.64-27.62,4.13l-40.53,54.76c-1.46,1.97-4.23,2.37-6.19,0.9l0,0
					c-1.93-1.45-2.33-4.19-0.89-6.14l68.88-93.07c6.49-8.77,4.64-21.13-4.12-27.62c-8.78-6.47-21.13-4.64-27.62,4.13l-68.71,92.85
					c-1.41,1.91-4.11,2.3-6.01,0.87l0,0c-1.88-1.41-2.26-4.07-0.86-5.96l86.72-117.18c6.19-8.36,5.64-20.4-2.16-27.28
					c-8.81-7.77-22.17-6.23-29.01,3L549.6,634.58c-1.13,1.52-3.28,1.84-4.8,0.7l0,0c-1.5-1.13-1.8-3.25-0.69-4.76L620.73,527
					c6.49-8.77,4.64-21.13-4.12-27.62c-8.77-6.46-21.13-4.64-27.62,4.13l-92.66,125.2l-24.11,32.02c-5.27,7-16.42,2.6-15.48-6.11
					l5.7-58.76c1.11-10.35-5.45-20.48-15.67-22.49c-11.53-2.26-22.26,5.84-23.48,17.27L409.16,728.2
					c-6.83,79.52,108.26,182.42,189.66,68.19l77.76-105.07l22.84-30.87C705.9,651.7,704.06,639.33,695.29,632.84z"/>
			</g>
		</g>
	</g>
</g>
</svg>
